# MagicaVoxel @ Ephtracy

# group
o 

# material
mtllib Bird.mtl
usemtl palette

# normals
vn -1 0 0
vn 1 0 0
vn 0 0 1
vn 0 0 -1
vn 0 -1 0
vn 0 1 0

# texcoords
vt 0.814453 0.5
vt 0.845703 0.5
vt 0.876953 0.5
vt 0.908203 0.5
vt 0.939453 0.5

# verts
v -0.5 0.4 0.3
v -0.5 0.4 0.1
v -0.5 0.5 0.4
v -0.5 0.5 0.3
v -0.5 0.5 0.2
v -0.5 0.5 0.1
v -0.5 0.6 0.4
v -0.5 0.6 0.2
v -0.4 0.3 0.3
v -0.4 0.3 0.1
v -0.4 0.4 0.4
v -0.4 0.4 0.3
v -0.4 0.4 0.1
v -0.4 0.4 0
v -0.4 0.5 0.5
v -0.4 0.5 0.4
v -0.4 0.5 0.3
v -0.4 0.5 0.2
v -0.4 0.5 0.1
v -0.4 0.5 0
v -0.4 0.6 0.4
v -0.4 0.6 0.2
v -0.4 0.6 0.1
v -0.4 0.7 0.5
v -0.4 0.7 0.2
v -0.3 0 0.5
v -0.3 0 0.3
v -0.3 0.1 0.5
v -0.3 0.1 0.3
v -0.3 0.4 0.8
v -0.3 0.4 0.4
v -0.3 0.5 0.5
v -0.3 0.5 0.4
v -0.3 0.5 0.1
v -0.3 0.5 0
v -0.3 0.6 0.2
v -0.3 0.6 0.1
v -0.3 0.7 0.8
v -0.3 0.7 0.5
v -0.3 0.7 0.4
v -0.3 0.7 0.2
v -0.3 0.9 0.8
v -0.3 0.9 0.7
v -0.3 1 0.8
v -0.3 1 0.7
v -0.3 1.1 0.8
v -0.3 1.1 0.4
v -0.3 1.1 0
v -0.2 0 0.3
v -0.2 0 0.2
v -0.2 0.1 0.4
v -0.2 0.1 0.3
v -0.2 0.1 0.2
v -0.2 0.2 0.5
v -0.2 0.2 0.4
v -0.2 0.3 0.4
v -0.2 0.3 0.3
v -0.2 0.4 0.5
v -0.2 0.4 0.4
v -0.1 0 0.5
v -0.1 0 0.4
v -0.1 0.1 0.5
v -0.1 0.1 0.4
v -0.1 0.5 0
v -0.1 0.5 -0.1
v -0.1 0.6 0
v -0.1 0.6 -0.1
v 0 0.4 0
v 0 0.4 -0.1
v 0 0.5 0
v 0 0.5 -0.1
v 0 0.5 -0.2
v 0 0.6 -0.1
v 0 0.7 0.9
v 0 0.7 0.8
v 0 0.7 -0.1
v 0 0.7 -0.2
v 0 0.8 0.9
v 0 0.8 0.8
v 0 1.1 0.6
v 0 1.1 0.4
v 0 1.2 0.5
v 0 1.2 0.4
v 0 1.3 0.6
v 0 1.3 0.5
v 0.1 0 0.5
v 0.1 0 0.4
v 0.1 0.1 0.5
v 0.1 0.1 0.4
v 0.2 0 0.4
v 0.2 0 0.2
v 0.2 0.1 0.4
v 0.2 0.1 0.3
v 0.2 0.1 0.2
v 0.2 0.2 0.5
v 0.2 0.2 0.4
v 0.2 0.3 0.4
v 0.2 0.3 0.3
v 0.2 0.4 0.5
v 0.2 0.4 0.4
v 0.3 0 0.5
v 0.3 0 0.4
v 0.3 0.1 0.5
v 0.3 0.1 0.4
v 0.4 0.3 0.3
v 0.4 0.3 0.1
v 0.4 0.4 0.3
v 0.4 0.4 0.1
v -0.3 0.3 0.3
v -0.3 0.3 0.1
v -0.3 0.4 0.3
v -0.3 0.4 0.1
v -0.2 0 0.5
v -0.2 0 0.4
v -0.2 0.1 0.5
v -0.2 0.1 0.4
v -0.1 0 0.4
v -0.1 0 0.2
v -0.1 0.1 0.4
v -0.1 0.1 0.3
v -0.1 0.1 0.2
v -0.1 0.2 0.5
v -0.1 0.2 0.4
v -0.1 0.3 0.4
v -0.1 0.3 0.3
v -0.1 0.4 0.5
v -0.1 0.4 0.4
v 0 0 0.5
v 0 0 0.4
v 0 0.1 0.5
v 0 0.1 0.4
v 0.1 0.4 0
v 0.1 0.4 -0.1
v 0.1 0.5 0
v 0.1 0.5 -0.1
v 0.1 0.5 -0.2
v 0.1 0.6 -0.1
v 0.1 0.7 0.9
v 0.1 0.7 0.8
v 0.1 0.7 -0.1
v 0.1 0.7 -0.2
v 0.1 0.8 0.9
v 0.1 0.8 0.8
v 0.1 1.1 0.6
v 0.1 1.1 0.4
v 0.1 1.2 0.5
v 0.1 1.2 0.4
v 0.1 1.3 0.6
v 0.1 1.3 0.5
v 0.2 0 0.5
v 0.2 0 0.4
v 0.2 0.1 0.5
v 0.2 0.1 0.4
v 0.2 0.5 0
v 0.2 0.5 -0.1
v 0.2 0.6 0
v 0.2 0.6 -0.1
v 0.3 0 0.3
v 0.3 0 0.2
v 0.3 0.1 0.4
v 0.3 0.1 0.3
v 0.3 0.1 0.2
v 0.3 0.2 0.5
v 0.3 0.2 0.4
v 0.3 0.3 0.4
v 0.3 0.3 0.3
v 0.3 0.4 0.5
v 0.3 0.4 0.4
v 0.4 0 0.5
v 0.4 0 0.3
v 0.4 0.1 0.5
v 0.4 0.1 0.3
v 0.4 0.4 0.8
v 0.4 0.4 0.4
v 0.4 0.5 0.5
v 0.4 0.5 0.4
v 0.4 0.5 0.1
v 0.4 0.5 0
v 0.4 0.6 0.2
v 0.4 0.6 0.1
v 0.4 0.7 0.8
v 0.4 0.7 0.5
v 0.4 0.7 0.4
v 0.4 0.7 0.2
v 0.4 0.9 0.8
v 0.4 0.9 0.7
v 0.4 1 0.8
v 0.4 1 0.7
v 0.4 1.1 0.8
v 0.4 1.1 0.4
v 0.4 1.1 0
v 0.5 0.3 0.3
v 0.5 0.3 0.1
v 0.5 0.4 0.4
v 0.5 0.4 0.3
v 0.5 0.4 0.1
v 0.5 0.4 0
v 0.5 0.5 0.5
v 0.5 0.5 0.4
v 0.5 0.5 0.3
v 0.5 0.5 0.2
v 0.5 0.5 0.1
v 0.5 0.5 0
v 0.5 0.6 0.4
v 0.5 0.6 0.2
v 0.5 0.6 0.1
v 0.5 0.7 0.5
v 0.5 0.7 0.2
v 0.6 0.4 0.3
v 0.6 0.4 0.1
v 0.6 0.5 0.4
v 0.6 0.5 0.3
v 0.6 0.5 0.2
v 0.6 0.5 0.1
v 0.6 0.6 0.4
v 0.6 0.6 0.2
v 0 0.7 0.9
v 0 0.8 0.9
v 0.1 0.7 0.9
v 0.1 0.8 0.9
v -0.3 0.4 0.8
v -0.3 0.7 0.8
v -0.3 0.9 0.8
v -0.3 1 0.8
v -0.3 1.1 0.8
v -0.2 0.9 0.8
v -0.2 1 0.8
v 0 0.7 0.8
v 0 0.8 0.8
v 0.1 0.7 0.8
v 0.1 0.8 0.8
v 0.3 0.9 0.8
v 0.3 1 0.8
v 0.4 0.4 0.8
v 0.4 0.7 0.8
v 0.4 0.9 0.8
v 0.4 1 0.8
v 0.4 1.1 0.8
v 0 1.1 0.6
v 0 1.3 0.6
v 0.1 1.1 0.6
v 0.1 1.3 0.6
v -0.4 0.5 0.5
v -0.4 0.7 0.5
v -0.3 0 0.5
v -0.3 0.1 0.5
v -0.3 0.5 0.5
v -0.3 0.7 0.5
v -0.2 0 0.5
v -0.2 0.1 0.5
v -0.2 0.2 0.5
v -0.2 0.4 0.5
v -0.1 0 0.5
v -0.1 0.1 0.5
v -0.1 0.2 0.5
v -0.1 0.4 0.5
v 0 0 0.5
v 0 0.1 0.5
v 0.1 0 0.5
v 0.1 0.1 0.5
v 0.2 0 0.5
v 0.2 0.1 0.5
v 0.2 0.2 0.5
v 0.2 0.4 0.5
v 0.3 0 0.5
v 0.3 0.1 0.5
v 0.3 0.2 0.5
v 0.3 0.4 0.5
v 0.4 0 0.5
v 0.4 0.1 0.5
v 0.4 0.5 0.5
v 0.4 0.7 0.5
v 0.5 0.5 0.5
v 0.5 0.7 0.5
v -0.5 0.5 0.4
v -0.5 0.6 0.4
v -0.4 0.4 0.4
v -0.4 0.5 0.4
v -0.4 0.6 0.4
v -0.3 0.4 0.4
v -0.3 0.5 0.4
v -0.2 0 0.4
v -0.2 0.1 0.4
v -0.2 0.2 0.4
v -0.1 0 0.4
v -0.1 0.1 0.4
v -0.1 0.2 0.4
v 0.2 0 0.4
v 0.2 0.1 0.4
v 0.2 0.2 0.4
v 0.3 0 0.4
v 0.3 0.1 0.4
v 0.3 0.2 0.4
v 0.4 0.4 0.4
v 0.4 0.5 0.4
v 0.5 0.4 0.4
v 0.5 0.5 0.4
v 0.5 0.6 0.4
v 0.6 0.5 0.4
v 0.6 0.6 0.4
v -0.5 0.4 0.3
v -0.5 0.5 0.3
v -0.4 0.3 0.3
v -0.4 0.4 0.3
v -0.4 0.5 0.3
v -0.3 0.3 0.3
v -0.3 0.4 0.3
v 0.4 0.3 0.3
v 0.4 0.4 0.3
v 0.5 0.3 0.3
v 0.5 0.4 0.3
v 0.5 0.5 0.3
v 0.6 0.4 0.3
v 0.6 0.5 0.3
v 0 0.6 -0.1
v 0 0.7 -0.1
v 0.1 0.6 -0.1
v 0.1 0.7 -0.1
v 0 1.2 0.5
v 0 1.3 0.5
v 0.1 1.2 0.5
v 0.1 1.3 0.5
v -0.2 0.3 0.4
v -0.2 0.4 0.4
v -0.1 0 0.4
v -0.1 0.1 0.4
v -0.1 0.3 0.4
v -0.1 0.4 0.4
v 0 0 0.4
v 0 0.1 0.4
v 0 1.1 0.4
v 0 1.2 0.4
v 0.1 0 0.4
v 0.1 0.1 0.4
v 0.1 1.1 0.4
v 0.1 1.2 0.4
v 0.2 0 0.4
v 0.2 0.1 0.4
v 0.2 0.3 0.4
v 0.2 0.4 0.4
v 0.3 0.3 0.4
v 0.3 0.4 0.4
v -0.3 0 0.3
v -0.3 0.1 0.3
v -0.2 0 0.3
v -0.2 0.1 0.3
v -0.2 0.3 0.3
v -0.1 0.1 0.3
v -0.1 0.3 0.3
v 0.2 0.1 0.3
v 0.2 0.3 0.3
v 0.3 0 0.3
v 0.3 0.1 0.3
v 0.3 0.3 0.3
v 0.4 0 0.3
v 0.4 0.1 0.3
v -0.5 0.5 0.2
v -0.5 0.6 0.2
v -0.4 0.5 0.2
v -0.4 0.6 0.2
v -0.4 0.7 0.2
v -0.3 0.6 0.2
v -0.3 0.7 0.2
v -0.2 0 0.2
v -0.2 0.1 0.2
v -0.1 0 0.2
v -0.1 0.1 0.2
v 0.2 0 0.2
v 0.2 0.1 0.2
v 0.3 0 0.2
v 0.3 0.1 0.2
v 0.4 0.6 0.2
v 0.4 0.7 0.2
v 0.5 0.5 0.2
v 0.5 0.6 0.2
v 0.5 0.7 0.2
v 0.6 0.5 0.2
v 0.6 0.6 0.2
v -0.5 0.4 0.1
v -0.5 0.5 0.1
v -0.4 0.3 0.1
v -0.4 0.4 0.1
v -0.4 0.5 0.1
v -0.4 0.6 0.1
v -0.3 0.3 0.1
v -0.3 0.4 0.1
v -0.3 0.5 0.1
v -0.3 0.6 0.1
v 0.4 0.3 0.1
v 0.4 0.4 0.1
v 0.4 0.5 0.1
v 0.4 0.6 0.1
v 0.5 0.3 0.1
v 0.5 0.4 0.1
v 0.5 0.5 0.1
v 0.5 0.6 0.1
v 0.6 0.4 0.1
v 0.6 0.5 0.1
v -0.4 0.4 0
v -0.4 0.5 0
v -0.3 0.4 0
v -0.3 0.5 0
v -0.3 1.1 0
v -0.1 0.5 0
v -0.1 0.6 0
v 0 0.4 0
v 0 0.5 0
v 0.1 0.4 0
v 0.1 0.5 0
v 0.2 0.5 0
v 0.2 0.6 0
v 0.4 0.4 0
v 0.4 0.5 0
v 0.4 1.1 0
v 0.5 0.4 0
v 0.5 0.5 0
v -0.1 0.5 -0.1
v -0.1 0.6 -0.1
v 0 0.4 -0.1
v 0 0.5 -0.1
v 0 0.6 -0.1
v 0.1 0.4 -0.1
v 0.1 0.5 -0.1
v 0.1 0.6 -0.1
v 0.2 0.5 -0.1
v 0.2 0.6 -0.1
v 0 0.5 -0.2
v 0 0.7 -0.2
v 0.1 0.5 -0.2
v 0.1 0.7 -0.2
v -0.3 0 0.5
v -0.2 0 0.5
v -0.1 0 0.5
v 0 0 0.5
v 0.1 0 0.5
v 0.2 0 0.5
v 0.3 0 0.5
v 0.4 0 0.5
v -0.2 0 0.4
v -0.1 0 0.4
v 0 0 0.4
v 0.1 0 0.4
v 0.2 0 0.4
v 0.3 0 0.4
v -0.3 0 0.3
v -0.2 0 0.3
v 0.3 0 0.3
v 0.4 0 0.3
v -0.2 0 0.2
v -0.1 0 0.2
v 0.2 0 0.2
v 0.3 0 0.2
v -0.2 0.2 0.5
v -0.1 0.2 0.5
v 0.2 0.2 0.5
v 0.3 0.2 0.5
v -0.2 0.2 0.4
v -0.1 0.2 0.4
v 0.2 0.2 0.4
v 0.3 0.2 0.4
v -0.4 0.3 0.3
v -0.3 0.3 0.3
v 0.4 0.3 0.3
v 0.5 0.3 0.3
v -0.4 0.3 0.1
v -0.3 0.3 0.1
v 0.4 0.3 0.1
v 0.5 0.3 0.1
v -0.3 0.4 0.8
v 0.4 0.4 0.8
v -0.2 0.4 0.5
v -0.1 0.4 0.5
v 0.2 0.4 0.5
v 0.3 0.4 0.5
v -0.4 0.4 0.4
v -0.3 0.4 0.4
v -0.2 0.4 0.4
v -0.1 0.4 0.4
v 0.2 0.4 0.4
v 0.3 0.4 0.4
v 0.4 0.4 0.4
v 0.5 0.4 0.4
v -0.5 0.4 0.3
v -0.4 0.4 0.3
v -0.3 0.4 0.3
v 0.4 0.4 0.3
v 0.5 0.4 0.3
v 0.6 0.4 0.3
v -0.5 0.4 0.1
v -0.4 0.4 0.1
v -0.3 0.4 0.1
v 0.4 0.4 0.1
v 0.5 0.4 0.1
v 0.6 0.4 0.1
v -0.4 0.4 0
v -0.3 0.4 0
v 0 0.4 0
v 0.1 0.4 0
v 0.4 0.4 0
v 0.5 0.4 0
v 0 0.4 -0.1
v 0.1 0.4 -0.1
v -0.4 0.5 0.5
v -0.3 0.5 0.5
v 0.4 0.5 0.5
v 0.5 0.5 0.5
v -0.5 0.5 0.4
v -0.4 0.5 0.4
v -0.3 0.5 0.4
v 0.4 0.5 0.4
v 0.5 0.5 0.4
v 0.6 0.5 0.4
v -0.5 0.5 0.3
v -0.4 0.5 0.3
v 0.5 0.5 0.3
v 0.6 0.5 0.3
v -0.1 0.5 0
v 0 0.5 0
v 0.1 0.5 0
v 0.2 0.5 0
v -0.1 0.5 -0.1
v 0 0.5 -0.1
v 0.1 0.5 -0.1
v 0.2 0.5 -0.1
v 0 0.5 -0.2
v 0.1 0.5 -0.2
v 0 0.7 0.9
v 0.1 0.7 0.9
v 0 0.7 0.8
v 0.1 0.7 0.8
v -0.3 0.1 0.5
v -0.2 0.1 0.5
v -0.1 0.1 0.5
v 0 0.1 0.5
v 0.1 0.1 0.5
v 0.2 0.1 0.5
v 0.3 0.1 0.5
v 0.4 0.1 0.5
v -0.2 0.1 0.4
v -0.1 0.1 0.4
v 0 0.1 0.4
v 0.1 0.1 0.4
v 0.2 0.1 0.4
v 0.3 0.1 0.4
v -0.3 0.1 0.3
v -0.2 0.1 0.3
v -0.1 0.1 0.3
v 0.2 0.1 0.3
v 0.3 0.1 0.3
v 0.4 0.1 0.3
v -0.2 0.1 0.2
v -0.1 0.1 0.2
v 0.2 0.1 0.2
v 0.3 0.1 0.2
v -0.2 0.3 0.4
v -0.1 0.3 0.4
v 0.2 0.3 0.4
v 0.3 0.3 0.4
v -0.2 0.3 0.3
v -0.1 0.3 0.3
v 0.2 0.3 0.3
v 0.3 0.3 0.3
v -0.5 0.5 0.2
v -0.4 0.5 0.2
v 0.5 0.5 0.2
v 0.6 0.5 0.2
v -0.5 0.5 0.1
v -0.4 0.5 0.1
v -0.3 0.5 0.1
v 0.4 0.5 0.1
v 0.5 0.5 0.1
v 0.6 0.5 0.1
v -0.4 0.5 0
v -0.3 0.5 0
v 0.4 0.5 0
v 0.5 0.5 0
v -0.5 0.6 0.4
v -0.4 0.6 0.4
v 0.5 0.6 0.4
v 0.6 0.6 0.4
v -0.5 0.6 0.2
v -0.4 0.6 0.2
v -0.3 0.6 0.2
v 0.4 0.6 0.2
v 0.5 0.6 0.2
v 0.6 0.6 0.2
v -0.4 0.6 0.1
v -0.3 0.6 0.1
v 0.4 0.6 0.1
v 0.5 0.6 0.1
v -0.1 0.6 0
v 0.2 0.6 0
v -0.1 0.6 -0.1
v 0 0.6 -0.1
v 0.1 0.6 -0.1
v 0.2 0.6 -0.1
v -0.4 0.7 0.5
v -0.3 0.7 0.5
v 0.4 0.7 0.5
v 0.5 0.7 0.5
v -0.3 0.7 0.4
v 0.4 0.7 0.4
v -0.4 0.7 0.2
v -0.3 0.7 0.2
v 0.4 0.7 0.2
v 0.5 0.7 0.2
v 0 0.7 -0.1
v 0.1 0.7 -0.1
v 0 0.7 -0.2
v 0.1 0.7 -0.2
v 0 0.8 0.9
v 0.1 0.8 0.9
v 0 0.8 0.8
v 0.1 0.8 0.8
v -0.3 1.1 0.8
v 0.4 1.1 0.8
v 0 1.1 0.6
v 0.1 1.1 0.6
v -0.3 1.1 0.4
v 0 1.1 0.4
v 0.1 1.1 0.4
v 0.4 1.1 0.4
v -0.3 1.1 0
v 0.4 1.1 0
v 0 1.2 0.5
v 0.1 1.2 0.5
v 0 1.2 0.4
v 0.1 1.2 0.4
v 0 1.3 0.6
v 0.1 1.3 0.6
v 0 1.3 0.5
v 0.1 1.3 0.5

# faces
f 4/4/1 2/4/1 1/4/1
f 5/4/1 2/4/1 4/4/1
f 6/4/1 2/4/1 5/4/1
f 7/4/1 4/4/1 3/4/1
f 7/4/1 5/4/1 4/4/1
f 8/4/1 5/4/1 7/4/1
f 12/4/1 10/4/1 9/4/1
f 13/4/1 10/4/1 12/4/1
f 16/4/1 12/4/1 11/4/1
f 17/4/1 12/4/1 16/4/1
f 19/4/1 14/4/1 13/4/1
f 20/4/1 14/4/1 19/4/1
f 21/4/1 16/4/1 15/4/1
f 22/4/1 19/4/1 18/4/1
f 23/4/1 19/4/1 22/4/1
f 24/4/1 21/4/1 15/4/1
f 24/4/1 22/4/1 21/4/1
f 25/4/1 22/4/1 24/4/1
f 28/1/1 27/1/1 26/1/1
f 29/1/1 27/1/1 28/1/1
f 32/2/1 31/2/1 30/2/1
f 33/2/1 31/2/1 32/2/1
f 37/3/1 35/3/1 34/3/1
f 38/2/1 32/2/1 30/2/1
f 39/2/1 32/2/1 38/2/1
f 41/3/1 37/3/1 36/3/1
f 42/4/1 40/4/1 39/4/1
f 42/4/1 39/4/1 38/4/1
f 43/4/1 40/4/1 42/4/1
f 44/5/1 43/5/1 42/5/1
f 45/4/1 40/4/1 43/4/1
f 45/5/1 43/5/1 44/5/1
f 46/4/1 45/4/1 44/4/1
f 47/3/1 41/3/1 40/3/1
f 47/4/1 45/4/1 46/4/1
f 47/4/1 40/4/1 45/4/1
f 48/3/1 35/3/1 37/3/1
f 48/3/1 41/3/1 47/3/1
f 48/3/1 37/3/1 41/3/1
f 52/1/1 50/1/1 49/1/1
f 53/1/1 50/1/1 52/1/1
f 55/1/1 52/1/1 51/1/1
f 56/1/1 52/1/1 55/1/1
f 56/1/1 55/1/1 54/1/1
f 57/1/1 52/1/1 56/1/1
f 58/1/1 56/1/1 54/1/1
f 59/1/1 56/1/1 58/1/1
f 62/1/1 61/1/1 60/1/1
f 63/1/1 61/1/1 62/1/1
f 66/3/1 65/3/1 64/3/1
f 67/3/1 65/3/1 66/3/1
f 70/3/1 69/3/1 68/3/1
f 71/3/1 69/3/1 70/3/1
f 73/3/1 72/3/1 71/3/1
f 76/3/1 72/3/1 73/3/1
f 77/3/1 72/3/1 76/3/1
f 78/5/1 75/5/1 74/5/1
f 79/5/1 75/5/1 78/5/1
f 82/4/1 81/4/1 80/4/1
f 83/4/1 81/4/1 82/4/1
f 84/4/1 82/4/1 80/4/1
f 85/4/1 82/4/1 84/4/1
f 88/1/1 87/1/1 86/1/1
f 89/1/1 87/1/1 88/1/1
f 92/1/1 91/1/1 90/1/1
f 93/1/1 91/1/1 92/1/1
f 94/1/1 91/1/1 93/1/1
f 96/1/1 93/1/1 92/1/1
f 97/1/1 93/1/1 96/1/1
f 97/1/1 96/1/1 95/1/1
f 98/1/1 93/1/1 97/1/1
f 99/1/1 97/1/1 95/1/1
f 100/1/1 97/1/1 99/1/1
f 103/1/1 102/1/1 101/1/1
f 104/1/1 102/1/1 103/1/1
f 107/4/1 106/4/1 105/4/1
f 108/4/1 106/4/1 107/4/1
f 109/4/2 110/4/2 111/4/2
f 111/4/2 110/4/2 112/4/2
f 113/1/2 114/1/2 115/1/2
f 115/1/2 114/1/2 116/1/2
f 117/1/2 118/1/2 119/1/2
f 119/1/2 118/1/2 120/1/2
f 120/1/2 118/1/2 121/1/2
f 119/1/2 120/1/2 123/1/2
f 123/1/2 120/1/2 124/1/2
f 122/1/2 123/1/2 124/1/2
f 124/1/2 120/1/2 125/1/2
f 122/1/2 124/1/2 126/1/2
f 126/1/2 124/1/2 127/1/2
f 128/1/2 129/1/2 130/1/2
f 130/1/2 129/1/2 131/1/2
f 132/3/2 133/3/2 134/3/2
f 134/3/2 133/3/2 135/3/2
f 135/3/2 136/3/2 137/3/2
f 137/3/2 136/3/2 140/3/2
f 140/3/2 136/3/2 141/3/2
f 138/5/2 139/5/2 142/5/2
f 142/5/2 139/5/2 143/5/2
f 144/4/2 145/4/2 146/4/2
f 146/4/2 145/4/2 147/4/2
f 144/4/2 146/4/2 148/4/2
f 148/4/2 146/4/2 149/4/2
f 150/1/2 151/1/2 152/1/2
f 152/1/2 151/1/2 153/1/2
f 154/3/2 155/3/2 156/3/2
f 156/3/2 155/3/2 157/3/2
f 158/1/2 159/1/2 161/1/2
f 161/1/2 159/1/2 162/1/2
f 160/1/2 161/1/2 164/1/2
f 164/1/2 161/1/2 165/1/2
f 163/1/2 164/1/2 165/1/2
f 165/1/2 161/1/2 166/1/2
f 163/1/2 165/1/2 167/1/2
f 167/1/2 165/1/2 168/1/2
f 169/1/2 170/1/2 171/1/2
f 171/1/2 170/1/2 172/1/2
f 173/2/2 174/2/2 175/2/2
f 175/2/2 174/2/2 176/2/2
f 177/3/2 178/3/2 180/3/2
f 173/2/2 175/2/2 181/2/2
f 181/2/2 175/2/2 182/2/2
f 179/3/2 180/3/2 184/3/2
f 182/4/2 183/4/2 185/4/2
f 181/4/2 182/4/2 185/4/2
f 185/4/2 183/4/2 186/4/2
f 185/5/2 186/5/2 187/5/2
f 186/4/2 183/4/2 188/4/2
f 187/5/2 186/5/2 188/5/2
f 187/4/2 188/4/2 189/4/2
f 183/3/2 184/3/2 190/3/2
f 189/4/2 188/4/2 190/4/2
f 188/4/2 183/4/2 190/4/2
f 180/3/2 178/3/2 191/3/2
f 190/3/2 184/3/2 191/3/2
f 184/3/2 180/3/2 191/3/2
f 192/4/2 193/4/2 195/4/2
f 195/4/2 193/4/2 196/4/2
f 194/4/2 195/4/2 199/4/2
f 199/4/2 195/4/2 200/4/2
f 196/4/2 197/4/2 202/4/2
f 202/4/2 197/4/2 203/4/2
f 198/4/2 199/4/2 204/4/2
f 201/4/2 202/4/2 205/4/2
f 205/4/2 202/4/2 206/4/2
f 198/4/2 204/4/2 207/4/2
f 204/4/2 205/4/2 207/4/2
f 207/4/2 205/4/2 208/4/2
f 209/4/2 210/4/2 212/4/2
f 212/4/2 210/4/2 213/4/2
f 213/4/2 210/4/2 214/4/2
f 211/4/2 212/4/2 215/4/2
f 212/4/2 213/4/2 215/4/2
f 215/4/2 213/4/2 216/4/2
f 219/5/3 218/5/3 217/5/3
f 220/5/3 218/5/3 219/5/3
f 226/4/3 223/4/3 222/4/3
f 226/5/3 224/5/3 223/5/3
f 227/4/3 225/4/3 224/4/3
f 227/5/3 224/5/3 226/5/3
f 228/2/3 222/2/3 221/2/3
f 228/4/3 226/4/3 222/4/3
f 228/4/3 227/4/3 226/4/3
f 229/4/3 227/4/3 228/4/3
f 230/2/3 228/2/3 221/2/3
f 231/4/3 227/4/3 229/4/3
f 232/4/3 227/4/3 231/4/3
f 232/4/3 231/4/3 230/4/3
f 233/4/3 225/4/3 227/4/3
f 233/4/3 227/4/3 232/4/3
f 234/2/3 230/2/3 221/2/3
f 235/4/3 232/4/3 230/4/3
f 235/2/3 230/2/3 234/2/3
f 236/5/3 233/5/3 232/5/3
f 236/4/3 232/4/3 235/4/3
f 237/4/3 225/4/3 233/4/3
f 237/5/3 233/5/3 236/5/3
f 238/4/3 225/4/3 237/4/3
f 241/4/3 240/4/3 239/4/3
f 242/4/3 240/4/3 241/4/3
f 247/4/3 244/4/3 243/4/3
f 248/4/3 244/4/3 247/4/3
f 249/1/3 246/1/3 245/1/3
f 250/1/3 246/1/3 249/1/3
f 255/1/3 252/1/3 251/1/3
f 256/1/3 252/1/3 255/1/3
f 257/1/3 254/1/3 253/1/3
f 258/1/3 254/1/3 257/1/3
f 261/1/3 260/1/3 259/1/3
f 262/1/3 260/1/3 261/1/3
f 267/1/3 264/1/3 263/1/3
f 268/1/3 264/1/3 267/1/3
f 269/1/3 266/1/3 265/1/3
f 270/1/3 266/1/3 269/1/3
f 273/4/3 272/4/3 271/4/3
f 274/4/3 272/4/3 273/4/3
f 278/4/3 276/4/3 275/4/3
f 279/4/3 276/4/3 278/4/3
f 280/4/3 278/4/3 277/4/3
f 281/4/3 278/4/3 280/4/3
f 285/1/3 283/1/3 282/1/3
f 285/1/3 284/1/3 283/1/3
f 286/1/3 284/1/3 285/1/3
f 287/1/3 284/1/3 286/1/3
f 291/1/3 289/1/3 288/1/3
f 291/1/3 290/1/3 289/1/3
f 292/1/3 290/1/3 291/1/3
f 293/1/3 290/1/3 292/1/3
f 296/4/3 295/4/3 294/4/3
f 297/4/3 295/4/3 296/4/3
f 299/4/3 298/4/3 297/4/3
f 300/4/3 298/4/3 299/4/3
f 304/4/3 302/4/3 301/4/3
f 305/4/3 302/4/3 304/4/3
f 306/4/3 304/4/3 303/4/3
f 307/4/3 304/4/3 306/4/3
f 310/4/3 309/4/3 308/4/3
f 311/4/3 309/4/3 310/4/3
f 313/4/3 312/4/3 311/4/3
f 314/4/3 312/4/3 313/4/3
f 317/3/3 316/3/3 315/3/3
f 318/3/3 316/3/3 317/3/3
f 319/4/4 320/4/4 321/4/4
f 321/4/4 320/4/4 322/4/4
f 323/1/4 324/1/4 327/1/4
f 327/1/4 324/1/4 328/1/4
f 325/1/4 326/1/4 329/1/4
f 329/1/4 326/1/4 330/1/4
f 331/4/4 332/4/4 335/4/4
f 335/4/4 332/4/4 336/4/4
f 333/1/4 334/1/4 337/1/4
f 337/1/4 334/1/4 338/1/4
f 339/1/4 340/1/4 341/1/4
f 341/1/4 340/1/4 342/1/4
f 343/1/4 344/1/4 345/1/4
f 345/1/4 344/1/4 346/1/4
f 346/1/4 347/1/4 348/1/4
f 348/1/4 347/1/4 349/1/4
f 350/1/4 351/1/4 353/1/4
f 353/1/4 351/1/4 354/1/4
f 352/1/4 353/1/4 355/1/4
f 355/1/4 353/1/4 356/1/4
f 357/4/4 358/4/4 359/4/4
f 359/4/4 358/4/4 360/4/4
f 360/4/4 361/4/4 362/4/4
f 362/4/4 361/4/4 363/4/4
f 364/1/4 365/1/4 366/1/4
f 366/1/4 365/1/4 367/1/4
f 368/1/4 369/1/4 370/1/4
f 370/1/4 369/1/4 371/1/4
f 372/4/4 373/4/4 375/4/4
f 375/4/4 373/4/4 376/4/4
f 374/4/4 375/4/4 377/4/4
f 377/4/4 375/4/4 378/4/4
f 379/4/4 380/4/4 382/4/4
f 382/4/4 380/4/4 383/4/4
f 381/4/4 382/4/4 385/4/4
f 385/4/4 382/4/4 386/4/4
f 383/4/4 384/4/4 387/4/4
f 387/4/4 384/4/4 388/4/4
f 389/4/4 390/4/4 393/4/4
f 393/4/4 390/4/4 394/4/4
f 391/4/4 392/4/4 395/4/4
f 395/4/4 392/4/4 396/4/4
f 394/4/4 395/4/4 397/4/4
f 397/4/4 395/4/4 398/4/4
f 399/4/4 400/4/4 401/4/4
f 401/4/4 400/4/4 402/4/4
f 401/3/4 402/3/4 404/3/4
f 402/3/4 403/3/4 404/3/4
f 404/3/4 403/3/4 405/3/4
f 401/3/4 404/3/4 406/3/4
f 406/3/4 404/3/4 407/3/4
f 408/3/4 409/3/4 410/3/4
f 405/3/4 403/3/4 411/3/4
f 408/3/4 410/3/4 412/3/4
f 410/3/4 411/3/4 412/3/4
f 412/3/4 411/3/4 413/3/4
f 411/3/4 403/3/4 414/3/4
f 413/3/4 411/3/4 414/3/4
f 412/4/4 413/4/4 415/4/4
f 415/4/4 413/4/4 416/4/4
f 417/3/4 418/3/4 420/3/4
f 420/3/4 418/3/4 421/3/4
f 419/3/4 420/3/4 422/3/4
f 422/3/4 420/3/4 423/3/4
f 423/3/4 424/3/4 425/3/4
f 425/3/4 424/3/4 426/3/4
f 427/3/4 428/3/4 429/3/4
f 429/3/4 428/3/4 430/3/4
f 439/1/5 432/1/5 431/1/5
f 440/1/5 434/1/5 433/1/5
f 441/1/5 434/1/5 440/1/5
f 442/1/5 436/1/5 435/1/5
f 443/1/5 436/1/5 442/1/5
f 444/1/5 438/1/5 437/1/5
f 445/1/5 439/1/5 431/1/5
f 445/1/5 440/1/5 439/1/5
f 446/1/5 440/1/5 445/1/5
f 447/1/5 444/1/5 443/1/5
f 447/1/5 438/1/5 444/1/5
f 448/1/5 438/1/5 447/1/5
f 449/1/5 440/1/5 446/1/5
f 450/1/5 440/1/5 449/1/5
f 451/1/5 447/1/5 443/1/5
f 452/1/5 447/1/5 451/1/5
f 457/1/5 454/1/5 453/1/5
f 458/1/5 454/1/5 457/1/5
f 459/1/5 456/1/5 455/1/5
f 460/1/5 456/1/5 459/1/5
f 465/4/5 462/4/5 461/4/5
f 466/4/5 462/4/5 465/4/5
f 467/4/5 464/4/5 463/4/5
f 468/4/5 464/4/5 467/4/5
f 471/2/5 470/2/5 469/2/5
f 472/2/5 470/2/5 471/2/5
f 473/2/5 470/2/5 472/2/5
f 474/2/5 470/2/5 473/2/5
f 476/2/5 471/2/5 469/2/5
f 477/2/5 471/2/5 476/2/5
f 478/2/5 473/2/5 472/2/5
f 479/2/5 473/2/5 478/2/5
f 480/2/5 470/2/5 474/2/5
f 481/2/5 470/2/5 480/2/5
f 484/4/5 476/4/5 475/4/5
f 485/3/5 477/3/5 476/3/5
f 485/3/5 479/3/5 478/3/5
f 485/4/5 476/4/5 484/4/5
f 485/3/5 478/3/5 477/3/5
f 485/3/5 481/3/5 480/3/5
f 485/3/5 480/3/5 479/3/5
f 486/4/5 482/4/5 481/4/5
f 486/3/5 481/3/5 485/3/5
f 487/4/5 482/4/5 486/4/5
f 489/4/5 484/4/5 483/4/5
f 490/4/5 484/4/5 489/4/5
f 491/3/5 486/3/5 485/3/5
f 492/3/5 486/3/5 491/3/5
f 493/4/5 488/4/5 487/4/5
f 494/4/5 488/4/5 493/4/5
f 495/4/5 491/4/5 490/4/5
f 496/3/5 492/3/5 491/3/5
f 496/4/5 491/4/5 495/4/5
f 497/3/5 492/3/5 496/3/5
f 498/3/5 492/3/5 497/3/5
f 499/4/5 493/4/5 492/4/5
f 499/3/5 492/3/5 498/3/5
f 500/4/5 493/4/5 499/4/5
f 501/3/5 498/3/5 497/3/5
f 502/3/5 498/3/5 501/3/5
f 508/4/5 504/4/5 503/4/5
f 509/4/5 504/4/5 508/4/5
f 510/4/5 506/4/5 505/4/5
f 511/4/5 506/4/5 510/4/5
f 513/4/5 508/4/5 507/4/5
f 514/4/5 508/4/5 513/4/5
f 515/4/5 512/4/5 511/4/5
f 516/4/5 512/4/5 515/4/5
f 521/3/5 518/3/5 517/3/5
f 522/3/5 518/3/5 521/3/5
f 523/3/5 520/3/5 519/3/5
f 524/3/5 520/3/5 523/3/5
f 525/3/5 523/3/5 522/3/5
f 526/3/5 523/3/5 525/3/5
f 529/5/5 528/5/5 527/5/5
f 530/5/5 528/5/5 529/5/5
f 531/1/6 532/1/6 539/1/6
f 533/1/6 534/1/6 540/1/6
f 540/1/6 534/1/6 541/1/6
f 535/1/6 536/1/6 542/1/6
f 542/1/6 536/1/6 543/1/6
f 537/1/6 538/1/6 544/1/6
f 531/1/6 539/1/6 545/1/6
f 545/1/6 539/1/6 546/1/6
f 544/1/6 538/1/6 549/1/6
f 549/1/6 538/1/6 550/1/6
f 546/1/6 547/1/6 551/1/6
f 551/1/6 547/1/6 552/1/6
f 548/1/6 549/1/6 553/1/6
f 553/1/6 549/1/6 554/1/6
f 555/1/6 556/1/6 559/1/6
f 559/1/6 556/1/6 560/1/6
f 557/1/6 558/1/6 561/1/6
f 561/1/6 558/1/6 562/1/6
f 563/4/6 564/4/6 567/4/6
f 567/4/6 564/4/6 568/4/6
f 565/4/6 566/4/6 571/4/6
f 571/4/6 566/4/6 572/4/6
f 568/4/6 569/4/6 573/4/6
f 573/4/6 569/4/6 574/4/6
f 570/4/6 571/4/6 575/4/6
f 575/4/6 571/4/6 576/4/6
f 577/4/6 578/4/6 581/4/6
f 581/4/6 578/4/6 582/4/6
f 579/4/6 580/4/6 585/4/6
f 585/4/6 580/4/6 586/4/6
f 582/4/6 583/4/6 587/4/6
f 587/4/6 583/4/6 588/4/6
f 584/4/6 585/4/6 589/4/6
f 589/4/6 585/4/6 590/4/6
f 591/3/6 592/3/6 593/3/6
f 593/3/6 592/3/6 594/3/6
f 594/3/6 592/3/6 595/3/6
f 595/3/6 592/3/6 596/3/6
f 597/4/6 598/4/6 601/4/6
f 599/4/6 600/4/6 602/4/6
f 597/4/6 601/4/6 603/4/6
f 603/4/6 601/4/6 604/4/6
f 602/4/6 600/4/6 605/4/6
f 605/4/6 600/4/6 606/4/6
f 607/3/6 608/3/6 609/3/6
f 609/3/6 608/3/6 610/3/6
f 611/5/6 612/5/6 613/5/6
f 613/5/6 612/5/6 614/5/6
f 615/4/6 616/4/6 617/4/6
f 617/4/6 616/4/6 618/4/6
f 615/4/6 617/4/6 619/4/6
f 619/4/6 617/4/6 620/4/6
f 618/4/6 616/4/6 621/4/6
f 621/4/6 616/4/6 622/4/6
f 619/3/6 620/3/6 623/3/6
f 620/3/6 621/3/6 623/3/6
f 621/3/6 622/3/6 623/3/6
f 623/3/6 622/3/6 624/3/6
f 625/4/6 626/4/6 627/4/6
f 627/4/6 626/4/6 628/4/6
f 629/4/6 630/4/6 631/4/6
f 631/4/6 630/4/6 632/4/6
