# MagicaVoxel @ Ephtracy

# group
o 

# material
mtllib Pickaxe.mtl
usemtl palette

# normals
vn -1 0 0
vn 1 0 0
vn 0 0 1
vn 0 0 -1
vn 0 -1 0
vn 0 1 0

# texcoords
vt 0.939453 0.5
vt 0.970703 0.5
vt 0.974609 0.5
vt 0.978516 0.5

# verts
v -0.9 0 -0.1
v -0.9 0 -0.5
v -0.9 0.1 -0.1
v -0.9 0.1 -0.5
v -0.8 0 0
v -0.8 0 -0.1
v -0.8 0 -0.5
v -0.8 0 -0.6
v -0.8 0 -0.7
v -0.8 0.1 0
v -0.8 0.1 -0.1
v -0.8 0.1 -0.5
v -0.8 0.1 -0.6
v -0.8 0.1 -0.7
v -0.7 0 -0.7
v -0.7 0 -0.8
v -0.7 0.1 -0.7
v -0.7 0.1 -0.8
v -0.5 0 -0.3
v -0.5 0 -0.4
v -0.5 0 -0.8
v -0.5 0 -0.9
v -0.5 0.1 -0.3
v -0.5 0.1 -0.4
v -0.5 0.1 -0.8
v -0.5 0.1 -0.9
v -0.4 0 -0.2
v -0.4 0 -0.3
v -0.4 0.1 -0.2
v -0.4 0.1 -0.3
v -0.3 0 -0.1
v -0.3 0 -0.2
v -0.3 0.1 -0.1
v -0.3 0.1 -0.2
v -0.2 0 0
v -0.2 0 -0.1
v -0.2 0.1 0
v -0.2 0.1 -0.1
v -0.1 0 0.1
v -0.1 0 0
v -0.1 0.1 0.1
v -0.1 0.1 0
v 0 0 0.2
v 0 0 0.1
v 0 0.1 0.2
v 0 0.1 0.1
v -0.7 0 0
v -0.7 0 -0.2
v -0.7 0.1 0
v -0.7 0.1 -0.2
v -0.6 0 -0.2
v -0.6 0 -0.4
v -0.6 0.1 -0.2
v -0.6 0.1 -0.4
v -0.4 0 -0.5
v -0.4 0 -0.6
v -0.4 0.1 -0.5
v -0.4 0.1 -0.6
v -0.3 0 -0.4
v -0.3 0 -0.5
v -0.3 0.1 -0.4
v -0.3 0.1 -0.5
v -0.2 0 -0.3
v -0.2 0 -0.4
v -0.2 0 -0.6
v -0.2 0 -0.7
v -0.2 0.1 -0.3
v -0.2 0.1 -0.4
v -0.2 0.1 -0.6
v -0.2 0.1 -0.7
v -0.1 0 -0.2
v -0.1 0 -0.3
v -0.1 0 -0.8
v -0.1 0 -0.9
v -0.1 0.1 -0.2
v -0.1 0.1 -0.3
v -0.1 0.1 -0.8
v -0.1 0.1 -0.9
v 0 0 -0.1
v 0 0 -0.2
v 0 0 -0.7
v 0 0 -0.8
v 0 0.1 -0.1
v 0 0.1 -0.2
v 0 0.1 -0.7
v 0 0.1 -0.8
v 0.1 0 0
v 0.1 0 -0.1
v 0.1 0.1 0
v 0.1 0.1 -0.1
v 0.2 0 0.2
v 0.2 0 0
v 0.2 0.1 0.2
v 0.2 0.1 0
v 0 0 0.2
v 0 0.1 0.2
v 0.2 0 0.2
v 0.2 0.1 0.2
v -0.1 0 0.1
v -0.1 0.1 0.1
v 0 0 0.1
v 0 0.1 0.1
v -0.8 0 0
v -0.8 0.1 0
v -0.7 0 0
v -0.7 0.1 0
v -0.2 0 0
v -0.2 0.1 0
v -0.1 0 0
v -0.1 0.1 0
v -0.9 0 -0.1
v -0.9 0.1 -0.1
v -0.8 0 -0.1
v -0.8 0.1 -0.1
v -0.3 0 -0.1
v -0.3 0.1 -0.1
v -0.2 0 -0.1
v -0.2 0.1 -0.1
v -0.7 0 -0.2
v -0.7 0.1 -0.2
v -0.6 0 -0.2
v -0.6 0.1 -0.2
v -0.4 0 -0.2
v -0.4 0.1 -0.2
v -0.3 0 -0.2
v -0.3 0.1 -0.2
v -0.5 0 -0.3
v -0.5 0.1 -0.3
v -0.4 0 -0.3
v -0.4 0.1 -0.3
v -0.6 0 -0.4
v -0.6 0.1 -0.4
v -0.5 0 -0.4
v -0.5 0.1 -0.4
v -0.4 0 -0.6
v -0.4 0.1 -0.6
v -0.2 0 -0.6
v -0.2 0.1 -0.6
v -0.2 0 -0.7
v -0.2 0.1 -0.7
v 0 0 -0.7
v 0 0.1 -0.7
v 0.1 0 0
v 0.1 0.1 0
v 0.2 0 0
v 0.2 0.1 0
v 0 0 -0.1
v 0 0.1 -0.1
v 0.1 0 -0.1
v 0.1 0.1 -0.1
v -0.1 0 -0.2
v -0.1 0.1 -0.2
v 0 0 -0.2
v 0 0.1 -0.2
v -0.2 0 -0.3
v -0.2 0.1 -0.3
v -0.1 0 -0.3
v -0.1 0.1 -0.3
v -0.3 0 -0.4
v -0.3 0.1 -0.4
v -0.2 0 -0.4
v -0.2 0.1 -0.4
v -0.9 0 -0.5
v -0.9 0.1 -0.5
v -0.8 0 -0.5
v -0.8 0.1 -0.5
v -0.4 0 -0.5
v -0.4 0.1 -0.5
v -0.3 0 -0.5
v -0.3 0.1 -0.5
v -0.8 0 -0.7
v -0.8 0.1 -0.7
v -0.7 0 -0.7
v -0.7 0.1 -0.7
v -0.7 0 -0.8
v -0.7 0.1 -0.8
v -0.6 0 -0.8
v -0.6 0.1 -0.8
v -0.5 0 -0.8
v -0.5 0.1 -0.8
v -0.1 0 -0.8
v -0.1 0.1 -0.8
v 0 0 -0.8
v 0 0.1 -0.8
v -0.5 0 -0.9
v -0.5 0.1 -0.9
v -0.1 0 -0.9
v -0.1 0.1 -0.9
v 0 0 0.2
v 0.2 0 0.2
v -0.1 0 0.1
v 0 0 0.1
v 0.1 0 0.1
v -0.8 0 0
v -0.7 0 0
v -0.2 0 0
v -0.1 0 0
v 0 0 0
v 0.1 0 0
v 0.2 0 0
v -0.9 0 -0.1
v -0.8 0 -0.1
v -0.3 0 -0.1
v -0.2 0 -0.1
v -0.1 0 -0.1
v 0 0 -0.1
v 0.1 0 -0.1
v -0.8 0 -0.2
v -0.7 0 -0.2
v -0.6 0 -0.2
v -0.4 0 -0.2
v -0.3 0 -0.2
v -0.2 0 -0.2
v -0.1 0 -0.2
v 0 0 -0.2
v -0.5 0 -0.3
v -0.4 0 -0.3
v -0.3 0 -0.3
v -0.2 0 -0.3
v -0.1 0 -0.3
v -0.6 0 -0.4
v -0.5 0 -0.4
v -0.4 0 -0.4
v -0.3 0 -0.4
v -0.2 0 -0.4
v -0.9 0 -0.5
v -0.8 0 -0.5
v -0.7 0 -0.5
v -0.6 0 -0.5
v -0.5 0 -0.5
v -0.4 0 -0.5
v -0.3 0 -0.5
v -0.8 0 -0.6
v -0.7 0 -0.6
v -0.6 0 -0.6
v -0.5 0 -0.6
v -0.4 0 -0.6
v -0.2 0 -0.6
v -0.8 0 -0.7
v -0.7 0 -0.7
v -0.6 0 -0.7
v -0.5 0 -0.7
v -0.2 0 -0.7
v 0 0 -0.7
v -0.7 0 -0.8
v -0.6 0 -0.8
v -0.5 0 -0.8
v -0.2 0 -0.8
v -0.1 0 -0.8
v 0 0 -0.8
v -0.5 0 -0.9
v -0.1 0 -0.9
v 0 0.1 0.2
v 0.2 0.1 0.2
v -0.1 0.1 0.1
v 0 0.1 0.1
v 0.1 0.1 0.1
v -0.8 0.1 0
v -0.7 0.1 0
v -0.2 0.1 0
v -0.1 0.1 0
v 0 0.1 0
v 0.1 0.1 0
v 0.2 0.1 0
v -0.9 0.1 -0.1
v -0.8 0.1 -0.1
v -0.3 0.1 -0.1
v -0.2 0.1 -0.1
v -0.1 0.1 -0.1
v 0 0.1 -0.1
v 0.1 0.1 -0.1
v -0.8 0.1 -0.2
v -0.7 0.1 -0.2
v -0.6 0.1 -0.2
v -0.4 0.1 -0.2
v -0.3 0.1 -0.2
v -0.2 0.1 -0.2
v -0.1 0.1 -0.2
v 0 0.1 -0.2
v -0.5 0.1 -0.3
v -0.4 0.1 -0.3
v -0.3 0.1 -0.3
v -0.2 0.1 -0.3
v -0.1 0.1 -0.3
v -0.6 0.1 -0.4
v -0.5 0.1 -0.4
v -0.4 0.1 -0.4
v -0.3 0.1 -0.4
v -0.2 0.1 -0.4
v -0.9 0.1 -0.5
v -0.8 0.1 -0.5
v -0.7 0.1 -0.5
v -0.6 0.1 -0.5
v -0.5 0.1 -0.5
v -0.4 0.1 -0.5
v -0.3 0.1 -0.5
v -0.8 0.1 -0.6
v -0.7 0.1 -0.6
v -0.6 0.1 -0.6
v -0.5 0.1 -0.6
v -0.4 0.1 -0.6
v -0.2 0.1 -0.6
v -0.8 0.1 -0.7
v -0.7 0.1 -0.7
v -0.6 0.1 -0.7
v -0.5 0.1 -0.7
v -0.2 0.1 -0.7
v 0 0.1 -0.7
v -0.7 0.1 -0.8
v -0.6 0.1 -0.8
v -0.5 0.1 -0.8
v -0.2 0.1 -0.8
v -0.1 0.1 -0.8
v 0 0.1 -0.8
v -0.5 0.1 -0.9
v -0.1 0.1 -0.9

# faces
f 3/2/1 2/2/1 1/2/1
f 4/2/1 2/2/1 3/2/1
f 10/2/1 6/2/1 5/2/1
f 11/2/1 6/2/1 10/2/1
f 12/2/1 8/2/1 7/2/1
f 13/3/1 9/3/1 8/3/1
f 13/2/1 8/2/1 12/2/1
f 14/3/1 9/3/1 13/3/1
f 17/3/1 16/3/1 15/3/1
f 18/3/1 16/3/1 17/3/1
f 23/3/1 20/3/1 19/3/1
f 24/3/1 20/3/1 23/3/1
f 25/2/1 22/2/1 21/2/1
f 26/2/1 22/2/1 25/2/1
f 29/3/1 28/3/1 27/3/1
f 30/3/1 28/3/1 29/3/1
f 33/3/1 32/3/1 31/3/1
f 34/3/1 32/3/1 33/3/1
f 37/3/1 36/3/1 35/3/1
f 38/3/1 36/3/1 37/3/1
f 41/3/1 40/3/1 39/3/1
f 42/3/1 40/3/1 41/3/1
f 45/3/1 44/3/1 43/3/1
f 46/3/1 44/3/1 45/3/1
f 47/2/2 48/2/2 49/2/2
f 49/2/2 48/2/2 50/2/2
f 51/2/2 52/2/2 53/2/2
f 53/2/2 52/2/2 54/2/2
f 55/3/2 56/3/2 57/3/2
f 57/3/2 56/3/2 58/3/2
f 59/3/2 60/3/2 61/3/2
f 61/3/2 60/3/2 62/3/2
f 63/3/2 64/3/2 67/3/2
f 67/3/2 64/3/2 68/3/2
f 65/2/2 66/2/2 69/2/2
f 69/2/2 66/2/2 70/2/2
f 71/3/2 72/3/2 75/3/2
f 75/3/2 72/3/2 76/3/2
f 73/2/2 74/2/2 77/2/2
f 77/2/2 74/2/2 78/2/2
f 79/3/2 80/3/2 83/3/2
f 83/3/2 80/3/2 84/3/2
f 81/2/2 82/2/2 85/2/2
f 85/2/2 82/2/2 86/2/2
f 87/3/2 88/3/2 89/3/2
f 89/3/2 88/3/2 90/3/2
f 91/3/2 92/3/2 93/3/2
f 93/3/2 92/3/2 94/3/2
f 97/3/3 96/3/3 95/3/3
f 98/3/3 96/3/3 97/3/3
f 101/3/3 100/3/3 99/3/3
f 102/3/3 100/3/3 101/3/3
f 105/2/3 104/2/3 103/2/3
f 106/2/3 104/2/3 105/2/3
f 109/3/3 108/3/3 107/3/3
f 110/3/3 108/3/3 109/3/3
f 113/2/3 112/2/3 111/2/3
f 114/2/3 112/2/3 113/2/3
f 117/3/3 116/3/3 115/3/3
f 118/3/3 116/3/3 117/3/3
f 121/2/3 120/2/3 119/2/3
f 122/2/3 120/2/3 121/2/3
f 125/3/3 124/3/3 123/3/3
f 126/3/3 124/3/3 125/3/3
f 129/3/3 128/3/3 127/3/3
f 130/3/3 128/3/3 129/3/3
f 133/3/3 132/3/3 131/3/3
f 134/3/3 132/3/3 133/3/3
f 137/2/3 136/2/3 135/2/3
f 138/2/3 136/2/3 137/2/3
f 141/2/3 140/2/3 139/2/3
f 142/2/3 140/2/3 141/2/3
f 143/3/4 144/3/4 145/3/4
f 145/3/4 144/3/4 146/3/4
f 147/3/4 148/3/4 149/3/4
f 149/3/4 148/3/4 150/3/4
f 151/3/4 152/3/4 153/3/4
f 153/3/4 152/3/4 154/3/4
f 155/3/4 156/3/4 157/3/4
f 157/3/4 156/3/4 158/3/4
f 159/3/4 160/3/4 161/3/4
f 161/3/4 160/3/4 162/3/4
f 163/2/4 164/2/4 165/2/4
f 165/2/4 164/2/4 166/2/4
f 167/3/4 168/3/4 169/3/4
f 169/3/4 168/3/4 170/3/4
f 171/3/4 172/3/4 173/3/4
f 173/3/4 172/3/4 174/3/4
f 175/3/4 176/3/4 177/3/4
f 177/3/4 176/3/4 178/3/4
f 177/2/4 178/2/4 179/2/4
f 179/2/4 178/2/4 180/2/4
f 181/2/4 182/2/4 183/2/4
f 183/2/4 182/2/4 184/2/4
f 185/2/4 186/2/4 187/2/4
f 187/2/4 186/2/4 188/2/4
f 192/3/5 190/3/5 189/3/5
f 193/3/5 190/3/5 192/3/5
f 197/3/5 192/3/5 191/3/5
f 198/4/5 193/4/5 192/4/5
f 198/3/5 192/3/5 197/3/5
f 199/3/5 190/3/5 193/3/5
f 199/4/5 193/4/5 198/4/5
f 200/3/5 190/3/5 199/3/5
f 202/2/5 195/2/5 194/2/5
f 204/3/5 197/3/5 196/3/5
f 205/4/5 198/4/5 197/4/5
f 205/3/5 197/3/5 204/3/5
f 206/3/5 199/3/5 198/3/5
f 206/4/5 198/4/5 205/4/5
f 207/3/5 199/3/5 206/3/5
f 208/2/5 202/2/5 201/2/5
f 208/2/5 195/2/5 202/2/5
f 209/2/5 195/2/5 208/2/5
f 212/3/5 204/3/5 203/3/5
f 213/4/5 205/4/5 204/4/5
f 213/3/5 204/3/5 212/3/5
f 214/3/5 206/3/5 205/3/5
f 214/4/5 205/4/5 213/4/5
f 215/3/5 206/3/5 214/3/5
f 217/3/5 212/3/5 211/3/5
f 218/4/5 213/4/5 212/4/5
f 218/3/5 212/3/5 217/3/5
f 219/3/5 214/3/5 213/3/5
f 219/4/5 213/4/5 218/4/5
f 220/3/5 214/3/5 219/3/5
f 221/2/5 210/2/5 209/2/5
f 222/3/5 217/3/5 216/3/5
f 223/4/5 218/4/5 217/4/5
f 223/3/5 217/3/5 222/3/5
f 224/3/5 219/3/5 218/3/5
f 224/4/5 218/4/5 223/4/5
f 225/3/5 219/3/5 224/3/5
f 226/2/5 208/2/5 201/2/5
f 227/1/5 209/1/5 208/1/5
f 227/2/5 208/2/5 226/2/5
f 228/2/5 221/2/5 209/2/5
f 228/1/5 209/1/5 227/1/5
f 229/3/5 222/3/5 221/3/5
f 229/2/5 221/2/5 228/2/5
f 230/4/5 223/4/5 222/4/5
f 230/3/5 222/3/5 229/3/5
f 231/3/5 224/3/5 223/3/5
f 231/4/5 223/4/5 230/4/5
f 232/3/5 224/3/5 231/3/5
f 233/2/5 228/2/5 227/2/5
f 234/1/5 229/1/5 228/1/5
f 234/2/5 228/2/5 233/2/5
f 235/2/5 230/2/5 229/2/5
f 235/1/5 229/1/5 234/1/5
f 236/3/5 231/3/5 230/3/5
f 236/2/5 230/2/5 235/2/5
f 237/3/5 231/3/5 236/3/5
f 239/3/5 234/3/5 233/3/5
f 240/2/5 235/2/5 234/2/5
f 240/3/5 234/3/5 239/3/5
f 241/1/5 236/1/5 235/1/5
f 241/2/5 235/2/5 240/2/5
f 242/2/5 237/2/5 236/2/5
f 242/1/5 236/1/5 241/1/5
f 242/2/5 238/2/5 237/2/5
f 243/2/5 238/2/5 242/2/5
f 245/3/5 241/3/5 240/3/5
f 246/2/5 242/2/5 241/2/5
f 246/3/5 241/3/5 245/3/5
f 247/1/5 243/1/5 242/1/5
f 247/2/5 242/2/5 246/2/5
f 248/2/5 244/2/5 243/2/5
f 248/1/5 243/1/5 247/1/5
f 249/2/5 244/2/5 248/2/5
f 250/2/5 244/2/5 249/2/5
f 251/2/5 249/2/5 248/2/5
f 251/2/5 248/2/5 247/2/5
f 252/2/5 249/2/5 251/2/5
f 253/3/6 254/3/6 256/3/6
f 256/3/6 254/3/6 257/3/6
f 255/3/6 256/3/6 261/3/6
f 256/4/6 257/4/6 262/4/6
f 261/3/6 256/3/6 262/3/6
f 257/3/6 254/3/6 263/3/6
f 262/4/6 257/4/6 263/4/6
f 263/3/6 254/3/6 264/3/6
f 258/2/6 259/2/6 266/2/6
f 260/3/6 261/3/6 268/3/6
f 261/4/6 262/4/6 269/4/6
f 268/3/6 261/3/6 269/3/6
f 262/3/6 263/3/6 270/3/6
f 269/4/6 262/4/6 270/4/6
f 270/3/6 263/3/6 271/3/6
f 265/2/6 266/2/6 272/2/6
f 266/2/6 259/2/6 272/2/6
f 272/2/6 259/2/6 273/2/6
f 267/3/6 268/3/6 276/3/6
f 268/4/6 269/4/6 277/4/6
f 276/3/6 268/3/6 277/3/6
f 269/3/6 270/3/6 278/3/6
f 277/4/6 269/4/6 278/4/6
f 278/3/6 270/3/6 279/3/6
f 275/3/6 276/3/6 281/3/6
f 276/4/6 277/4/6 282/4/6
f 281/3/6 276/3/6 282/3/6
f 277/3/6 278/3/6 283/3/6
f 282/4/6 277/4/6 283/4/6
f 283/3/6 278/3/6 284/3/6
f 273/2/6 274/2/6 285/2/6
f 280/3/6 281/3/6 286/3/6
f 281/4/6 282/4/6 287/4/6
f 286/3/6 281/3/6 287/3/6
f 282/3/6 283/3/6 288/3/6
f 287/4/6 282/4/6 288/4/6
f 288/3/6 283/3/6 289/3/6
f 265/2/6 272/2/6 290/2/6
f 272/1/6 273/1/6 291/1/6
f 290/2/6 272/2/6 291/2/6
f 273/2/6 285/2/6 292/2/6
f 291/1/6 273/1/6 292/1/6
f 285/3/6 286/3/6 293/3/6
f 292/2/6 285/2/6 293/2/6
f 286/4/6 287/4/6 294/4/6
f 293/3/6 286/3/6 294/3/6
f 287/3/6 288/3/6 295/3/6
f 294/4/6 287/4/6 295/4/6
f 295/3/6 288/3/6 296/3/6
f 291/2/6 292/2/6 297/2/6
f 292/1/6 293/1/6 298/1/6
f 297/2/6 292/2/6 298/2/6
f 293/2/6 294/2/6 299/2/6
f 298/1/6 293/1/6 299/1/6
f 294/3/6 295/3/6 300/3/6
f 299/2/6 294/2/6 300/2/6
f 300/3/6 295/3/6 301/3/6
f 297/3/6 298/3/6 303/3/6
f 298/2/6 299/2/6 304/2/6
f 303/3/6 298/3/6 304/3/6
f 299/1/6 300/1/6 305/1/6
f 304/2/6 299/2/6 305/2/6
f 300/2/6 301/2/6 306/2/6
f 305/1/6 300/1/6 306/1/6
f 301/2/6 302/2/6 306/2/6
f 306/2/6 302/2/6 307/2/6
f 304/3/6 305/3/6 309/3/6
f 305/2/6 306/2/6 310/2/6
f 309/3/6 305/3/6 310/3/6
f 306/1/6 307/1/6 311/1/6
f 310/2/6 306/2/6 311/2/6
f 307/2/6 308/2/6 312/2/6
f 311/1/6 307/1/6 312/1/6
f 312/2/6 308/2/6 313/2/6
f 313/2/6 308/2/6 314/2/6
f 312/2/6 313/2/6 315/2/6
f 311/2/6 312/2/6 315/2/6
f 315/2/6 313/2/6 316/2/6
